<?xml version="1.0" encoding="UTF-8"?>
<!-- Created with Inkscape (http://www.inkscape.org/) -->
<svg width="478.21539" height="138.33438" version="1.1" viewBox="0 0 478.21539 138.33439" xmlns="http://www.w3.org/2000/svg">
 <style>* { stroke-miterlimit: 1; }</style>
 <g transform="translate(-24.184257,-66.704946)">
  <path id="backdrop-black" d="m316.85993 77.705278c-0.34691 0.01433-0.64001 0.219991-0.78907 0.56836l-4.58203 10.958984-11.3125-0.738281c-0.49925-0.01483-0.80647 0.116551-0.86719 0.652344l-0.0137 0.125-0.25781 6.691406c-5e-3 0.41682 0.15892 0.810026 0.81836 0.884766l0.082 0.0098 7.20899 0.482421-8.01172 12.492182c-0.14699 0.19205-0.21492 0.43455-0.23828 0.64063-0.0374 0.32972 0.12976 0.68416 0.56445 0.90039l6.54297 3.41211c0.2745 0.15633 0.51813 0.22511 0.80664 0.25781 0.86551 0.0981 1.74515-0.30239 2.0625-0.89258l9.3789-16.093745 15.83399 1.001953c0.49924 0.0148 0.77912-0.247415 0.83984-0.783203l0.5918-6.695312c0.0514-0.453364-0.20483-0.774794-0.6582-0.826172l-0.082-0.0078-12.47071-0.830078 3.41211-8.378906c0.0506-0.07776 0.0649-0.200774 0.0742-0.283203 0.0514-0.453364-0.24173-0.822035-0.64453-0.951172l-7.97266-2.572266-0.16601-0.01953c-0.0515-0.0058-0.10084-0.0079-0.15039-0.0059zm-235.923836 4.023438c-0.373676 0.01547-0.701208 0.291106-0.763672 0.673828l-5.470703 33.521486c-0.07139 0.43739 0.234479 0.81338 0.671875 0.88476l7.833984 1.2793c0.437396 0.0714 0.807521-0.19541 0.878907-0.63281l2.576171-15.78516c2.41671 1.70075 6.156357 4.55613 7.94336 6.11328 0.17934 0.15174 0.436494 0.31591 0.714844 0.36133 0.27834 0.0454 0.577405-0.0288 0.828125-0.31445 5.489365-6.37049 5.687695-6.58355 5.746095-6.94141 0.0519-0.31811-0.10155-0.62753-0.5-0.937497-3.154398-2.433479-9.217258-5.057263-10.410158-5.251954-0.39763-0.0649-0.775901-0.0026-1.119141 0.34961l-2.535156 2.52539 2.226563-13.638672c0.0714-0.437397-0.1876-0.848535-0.625-0.919922l-7.833985-1.277343c-0.05467-0.0089-0.108727-0.01198-0.162109-0.0098zm278.603516 14.580078c-0.72795 0.03311-1.46224 0.140353-2.19531 0.326172-5.93695 1.50491-9.50491 7.494684-8 13.431644 1.48655 5.86457 7.47515 9.43068 13.41211 7.92578 5.86455-1.48655 9.43186-7.47529 7.94531-13.33985-1.31679-5.194835-6.06645-8.57554-11.16211-8.343746zm-226.2207 6.052736c-0.6933 9e-3 -1.30863 0.48184-1.44336 1.24023l-0.0274 0.14649-4.95507 38.56836c-0.0702 0.822 0.39936 1.5881 1.13476 1.71875l0.14844 0.0254 13.86914 1.7832c0.82201 0.0702 1.52877-0.48666 1.68555-1.36914l3.41797-26.93164c4.5677 1.1908 5.56319 4.55401 4.61132 12.04688l-2.02148 15.64843c-0.0702 0.82201 0.40131 1.5881 1.13672 1.71875l0.14844 0.0273 13.80859 1.69336c0.82201 0.0702 1.52681-0.48666 1.68359-1.36914l3.3418-26.49024c4.08727 1.33304 5.10778 4.54897 4.06445 12.55664-1.69134 14.64418 9.44896 18.97529 10.47852 19.1582 0.73541 0.13065 1.44909-0.0451 2.38867-0.63671 0 0 7.30981-4.84706 7.33594-4.99414 0.50657-0.28931 0.73155-0.70456 0.79687-1.07227 0.14372-0.80894-0.6065-1.70039-0.98242-2.14648-2.97298-3.33504-3.14101-7.08365-2.58594-11.91602 1.5689-13.52802-6.46904-23.37633-19.41211-25.67578-4.11825-0.73164-8.7494-0.71786-13.76953 0.21094-2.6721-1.61264-5.66725-2.67771-8.97656-3.26563-3.52993-0.62713-7.31054-0.69128-11.2832-0.10742l-4.45313-0.56445c-0.0468-4e-3 -0.0944-5e-3 -0.14062-4e-3zm193.70703 0.82617c-0.19074-4e-3 -0.4159 0.0472-0.64453 0.13086l-6.28906 2.46094c-0.39428 0.16404-0.59349 0.43395-0.63086 0.76367-0.028 0.24729 0.0272 0.50357 0.16406 0.76953l4.3125 9.46289c0.23712 0.48605 0.78587 0.80027 1.44531 0.875 0.49458 0.056 1.00807-0.0539 1.49414-0.29101l5.73633-3.10743c0.39896-0.20525 0.64233-0.51012 0.67969-0.83984 0.028-0.24729-0.0251-0.50475-0.20312-0.77539l-5.10157-8.75977c-0.20525-0.39896-0.51188-0.64155-0.88281-0.68359-0.0258-3e-3 -0.0528-5e-3 -0.0801-6e-3zm-44.41406 11.79688c-0.29936 0.0116-0.63747 0.0619-1.01758 0.1582l-12.58008 2.95703c-1.44803 0.36705-2.42318 1.38362-2.18359 2.63281l3.61523 19.73438c-2.84505-0.28053-6.12305-0.14268-9.23633 0.64648-14.33559 3.6338-17.35229 17.57517-15.11328 26.40821 2.95475 11.6567 15.65693 18.29923 27.74805 15.23437 3.98211-1.00939 7.92459-3.08718 11.41016-6.35937 5.08226 3.02676 11.47461 2.09961 11.47461 2.09961 1.08603-0.27529 1.6269-1.18262 1.85742-2.70508l1.61523-10.04297c0.0897-0.2539 0.0356-0.4703-0.0195-0.6875-0.16517-0.65162-1.05321-0.81057-1.9414-0.9707-3.29882-0.55079-5.28806-4.74664-6.79297-10.6836-1.26632-4.99573-6.60155-35.77598-6.69532-36.75391l-0.0566-0.21679c-0.20875-0.82358-0.78675-1.50147-2.08398-1.45117zm-58.49805 0.30273c-11.14298-0.21224-21.18017 5.92798-23.53516 19.18359-2.29945 12.94307 6.67703 23.48955 18.66407 25.61915 10.44271 1.85524 26.42887-3.5757 28.97656-17.91602 1.69846-9.56022-3.02887-23.52278-19.28125-26.41016-1.61788-0.28743-3.23236-0.44624-4.82422-0.47656zm-167.531252 1.6582c-0.141019-4e-3 -0.291466 4e-3 -0.449219 0.0234l-14.001953 1.91797-0.294922 0.0547c-1.90928 0.35489-1.795443 1.77701-1.705078 2.67187 0.366641 3.1986 0.780516 6.23495 1.152343 9.05274l-4.755859 0.58008c-0.881207 0.1638-1.418511 0.9481-1.341797 1.76953l1.384766 12.35351c0.150147 0.80777 0.948108 1.42046 1.769531 1.34375l5.5625-0.72851c3.82058 18.51052 9.132933 24.20711 21.392579 24.35937 0.233953 0.0325 0.453526-0.01 0.673828-0.0508 1.101508-0.20474 1.626954-1.06197 1.955078-2.56641l2.097656-9.96093c0.03248-0.23395 0.06635-0.46838 0.03906-0.61524-0.150148-0.80778-1.08687-0.93727-1.962891-1.15429-3.490437-0.79465-5.312553-5.69838-6.554688-12.38086l4.886719-0.68164 0.146485-0.0273c0.807773-0.15015 1.274002-0.91802 1.210937-1.66601l-1.384763-12.35352c-0.163798-0.88121-0.961758-1.4939-1.769531-1.34375l-5.123047 0.64844c-0.352993-3.12518-0.731777-6.39825-1.158203-9.50977-0.203042-1.09232-0.782402-1.70615-1.769531-1.73633zm314.869142 0.1836c-0.0919 3e-3 -0.18293 0.0161-0.27343 0.0391l-0.14649 0.0371-14.29492 4.39453c-0.85047 0.29264-1.26515 1.09016-1.04492 1.95898l10.74805 34.80079c0.27429 0.77807 1.01803 1.28391 1.81445 1.08203l0.14453-0.0371 14.29688-4.39453c0.70565-0.25594 1.19133-1.0709 1.00781-1.79492l-0.0371-0.14649-10.76563-34.87305c-0.16059-0.63351-0.80551-1.08615-1.44922-1.0664zm20.98633 0.64843c-0.69369 0.0158-1.34283 0.60025-1.48047 1.36133l-5.43164 38.51172c-0.079 0.89282 0.45752 1.61418 1.34375 1.76758l14.81446 2.06055 0.14843 0.0137c0.74402 0.0658 1.47324-0.54505 1.53907-1.28906l3.80273-26.88282c5.40494 0.77816 8.90996 4.38712 8.21875 12.19922l-0.22461 2.5293c-1.17176 13.24339 10.38344 18.24089 11.72266 18.35938 0.66961 0.0592 1.43379-0.0975 2.23047-0.62696 0 0 7.83254-4.63049 7.8457-4.77929 0.55372-0.32593 0.81597-0.75281 0.85547-1.19922 0.0724-0.81841-0.60409-1.62757-1.01758-2.03907-2.80029-3.09714-3.47216-6.53276-3.10351-10.69922l0.21679-2.45507c1.25734-14.2106-9.38293-24.44883-24.48633-25.78516-2.67844-0.23699-5.45781-0.18222-8.41211 0.15625l-8.29296-1.18555-0.1504-0.0137c-0.0465-4e-3 -0.0924-5e-3 -0.13867-4e-3zm-290.58008 0.77149c-1.81197-0.0418-3.733109 0.10925-5.76172 0.48633-12.924357 2.40237-22.772806 12.36285-19.960938 27.49023 2.402373 12.92436 14.514666 19.63704 26.484378 17.41211 10.42762-1.93828 23.48008-12.64524 20.81836-26.96484-1.55267-8.3531-8.8963-18.13095-21.58008-18.42383zm240.69727 4.58398c-0.20449 8e-3 -0.42612 0.0307-0.66602 0.0723l-12.80078 2.08789-0.36328 0.0918c-0.86882 0.22023-1.46554 0.60377-1.77148 1.2207-3.13567-0.51509-6.88383-0.41176-10.50391 0.50586-14.33558 3.63379-17.31363 17.71802-15.11133 26.40625 2.95475 11.6567 15.7292 18.28166 27.82031 15.2168 3.6925-0.93598 7.38101-2.7959 10.6504-5.70508 4.48267 2.48526 9.84436 2.36125 10.56836 2.17773 0.94123-0.23859 1.5002-1.07664 1.83984-2.47265l2.26758-9.89649c0.0714-0.3263 0.0894-0.56223 0.0527-0.70703-0.18353-0.72402-1.09046-0.95627-1.90625-1.13476-2.62885-0.64355-4.21525-3.55432-5.3164-7.89844-1.21126-4.77852-1.79278-11.33417-2.44922-18.17969l-0.0918-0.36328c-0.1927-0.76022-0.78734-1.47692-2.21875-1.42188zm122.39258 0.67774c-11.11884 0.76318-20.57906 7.75913-21.76563 21.16992-1.15859 13.09458 8.70272 22.81566 20.83008 23.88867 10.56496 0.93478 26.01516-5.87266 27.29883-20.38086 0.85578-9.67213-5.07299-23.16821-21.51562-24.62304-1.63683-0.14483-3.25925-0.16372-4.84766-0.0547zm-240.80274 5.375c0.66601-0.0356 1.38408 7e-3 2.15625 0.14453 7.50109 1.33263 6.52558 8.51875 6.27734 9.91602-0.74471 4.19178-3.85481 8.03894-9.07617 7.11132-4.19178-0.74471-7.56164-4.83393-6.66015-9.9082 0.51444-2.89565 2.64065-7.01435 7.30273-7.26367zm-124.408205 3.3125c6.350535-0.36557 7.788105 5.92828 8.031255 7.23633 0.77804 4.18572-0.77839 8.88242-5.99219 9.85156-4.185731 0.77804-8.78082-1.86471-9.722658-6.93164-0.614244-3.30453 0.179215-8.84561 6.347656-9.99219 0.468141-0.087 0.912569-0.13969 1.335937-0.16406zm367.492195 5.07226c0.35989-8e-3 0.73635 5e-3 1.12695 0.0391 7.58891 0.67145 7.24618 7.9145 7.1211 9.32812-0.37522 4.24086-3.13941 8.34629-8.42188 7.87891-4.24086-0.37523-7.95422-4.15345-7.5-9.28711 0.27772-3.1388 2.27546-7.8394 7.67383-7.95899zm-142.49414 1.8125c1.56604-0.0215 3.0438 0.49908 3.9707 1.41993 0.40578 2.20876 0.82752 4.182 1.30469 6.06445 0.56892 2.24446 1.22751 4.23315 1.92187 6.06055-1.48173 1.14613-3.00131 1.84076-4.37695 2.18945-4.70613 1.19292-8.41171-1.56464-9.43945-5.61914-0.93597-3.6925 0.47969-8.752 5.04101-9.9082 0.52491-0.13306 1.05611-0.19989 1.57813-0.20704zm-55.24219 14.07813c1.61343-0.0335 3.11568 0.48139 3.98828 1.41601 1.17456 4.63372 2.4388 8.39773 3.77148 11.52735-1.78867 1.4551-3.4892 2.3482-5.08203 2.75195-4.63371 1.17456-8.33749-1.58416-9.36523-5.63867s0.71252-8.73478 5.05664-9.83594c0.54301-0.13764 1.09305-0.20955 1.63086-0.2207zm-90.54297 2.58203c-0.0561 2e-3 -0.11271 0.0107-0.16992 0.0254l-19.67579 4.60156c-0.45775 0.11742-0.78929 0.56764-0.67187 1.02539l1.37109 5.66602c0.11742 0.45774 0.55788 0.75023 1.01563 0.63281l4.36914-1.03906 0.90234 3.83398-7.00781 2.16407c-0.40982 0.1458-0.48458 0.48963-0.38672 0.87109l0.0293 0.11328 1.83203 5.71094c0.15559 0.44796 0.62429 0.69359 1.08203 0.57617l6.25391-1.92969 1.14648 4.78711 0.0488 0.19141c0.91979 3.58567 2.74909 5.96129 8.32031 4.85742l10.58985-2.14648 0.18945-0.0488c1.10623-0.28377 1.64692-1.03085 1.42187-1.9082l-1.29101-5.03711c-0.22506-0.87734-0.72273-1.07452-1.29492-0.92774l-7.90821 1.82617c-0.50568 0.089-1.10694 0.1216-1.35156-0.83203l-0.0195-0.0762c-0.21527-0.8392-0.49057-2.07102-0.81445-3.49219l12.58398-3.8789c0.44795-0.15558 0.70336-0.58523 0.58594-1.04297l-1.83008-5.71094c-0.15559-0.44795-0.85476-0.635-1.3125-0.51758l-11.79297 3.63477c-0.23581-1.07786-0.47018-2.15562-0.73437-3.18555l6.0664-1.39258c0.45774-0.11742 0.75024-0.55983 0.63282-1.01757l-1.33399-5.67383c-0.10274-0.40053-0.45301-0.67641-0.8457-0.66016zm182.00195 5.85742c-0.64002 5e-3 -1.0795 0.40189-1.13671 0.875l-2.6504 17.97657c-0.30736 1.97683-1.19053 5.04401-2.29687 7.98242-0.0455 0.097-0.058 0.1979-0.0703 0.29883-0.0447 0.37009 0.11977 0.69773 0.54492 0.85156l3.42773 1.30078c0.16414 0.054 0.32832 0.10874 0.46289 0.125 0.74017 0.0895 1.42688-0.23803 1.73047-1.05469 0.8527-2.25223 1.62054-5.77751 1.92383-7.7207l0.0176-0.13477 2.13867-0.18359-0.66797 4.66406c-0.0895 0.74016-0.72291 1.75552-1.46679 2.82617-0.0836 0.12644-0.13405 0.2561-0.1504 0.39063-0.0367 0.30278 0.17872 0.50036 0.41016 0.5625l2.27734 0.92383c0.16415 0.054 0.29515 0.10474 0.42969 0.12109 0.43736 0.0529 0.76834-0.1474 1.14844-0.75 0.55942-0.95641 1.1631-2.28171 1.28516-3.29102l2.625-20.57421 1.41211 5.25781c0.0684 0.28136 0.28748 0.44401 0.55664 0.47656 0.13458 0.0163 0.27331-2e-3 0.41601-0.0527l3.47656-1.08203c0.35271-0.0939 0.55324-0.34174 0.58985-0.64454 0.0163-0.13457-4e-3 -0.24025-0.0215-0.3789l-1.60937-5.89453c-0.0684-0.28136-0.28358-0.47917-0.55274-0.51172-0.10092-0.0122-0.23873 6e-3 -0.34375 0.0273l-3.69531 0.91797-0.14258 0.0508c-0.17885-1.626-1.23837-2.74334-3.02148-2.95898l-0.33789-0.041-6.57813-0.35156c-0.0444-3e-3 -0.0882-4e-3 -0.13086-4e-3zm18.99024 1.29688c-0.15445-4e-3 -0.32874 0.0395-0.42774 0.11719l-2.50781 2.11914c-0.11719 0.12238-0.16719 0.25363-0.1875 0.42187-0.0244 0.20185 0.0187 0.41225 0.10742 0.52539l2.30079 2.70117c0.0887 0.11315 0.25363 0.16719 0.42187 0.1875 0.20185 0.0244 0.41167-0.0185 0.5625-0.13672l2.61719-2.17578c0.11718-0.12237 0.20617-0.28102 0.22656-0.44922 0.0204-0.16819-0.0238-0.37828-0.17578-0.5332l-2.51563-2.625c-0.0928-0.0795-0.1893-0.1259-0.35742-0.14648-0.021-3e-3 -0.0424-5e-3 -0.0645-6e-3zm5.20117 0.80273c-0.22005-2e-3 -0.47799 0.0872-0.60547 0.40039l-3.32031 8.26758c-0.0418 0.0633-0.0508 0.13179-0.0586 0.19922-0.0407 0.33643 0.091 0.65815 0.31836 0.75391l4.18945 1.76953c0.13038 0.0502 0.29511 0.10483 0.42969 0.12109 0.47101 0.057 0.93228-0.0929 1.08203-0.48437l3.36523-7.78516c0.0455-0.097 0.0542-0.1647 0.0664-0.26563 0.0407-0.33643-0.0445-0.75471-0.40235-0.90039l-4.64062-1.99609c-0.097-0.0455-0.19746-0.0579-0.33203-0.0742-0.0294-4e-3 -0.0604-6e-3 -0.0918-6e-3zm-19.91797 4.00391 1.11133 0.13476c0.37008 0.0447 0.59732 0.41219 0.50781 1.15235l-0.50976 3.66015-1.81055-0.56054zm13.27735 6.90234c-0.20692 5e-3 -0.40728 0.11947-0.46875 0.38086l-0.66211 2.92383-0.57618-0.30859c-0.0633-0.0418-0.13029-0.0489-0.16406-0.0527-0.1682-0.0204-0.35014 0.06-0.4082 0.25781l-1.0918 2.25586 0.37891-3.98047c0.0407-0.33643-0.17723-0.50032-0.51367-0.54101l-3.13672-0.31055c-0.33644-0.0407-0.56267 0.13579-0.60742 0.50586l-1.40235 15.5332c-0.0558 0.74422 0.38441 1.34394 1.15821 1.43751l0.0684 8e-3 12.64258 1.01758c1.69032 0.13613 2.81871-0.7186 3.05469-2.66993l1.52539-13.46875c0.0407-0.33643-0.22998-0.6429-0.56641-0.68359l-5.39062-0.58398c-0.33643-0.0407-0.63315 0.16357-0.67383 0.5l-0.3418 3.0996-1.47851-0.75976 0.86133-3.44531 8e-3 -0.0684c0.0325-0.26917-0.1242-0.39057-0.35156-0.48633l-1.70899-0.54688-0.0664-8e-3c-0.0294-4e-3 -0.0583-7e-3 -0.0879-6e-3zm-14.41602 0.26367 1.83789 0.59961-0.50586 3.625-2.0293 0.12891zm17.09961 6.50586-0.64844 5.92969c-0.0488 0.40371-0.40008 0.7718-0.87109 0.71484l-5.26953-0.46679 0.58593-5.97071 1.25 0.66211c-0.28217 0.92168-0.6815 1.96644-1.03906 2.94727-0.0377 0.0296-0.0442 0.0969-0.0527 0.16406-0.0203 0.16824 0.0591 0.34834 0.3457 0.51953l1.41602 0.7168c0.097 0.0455 0.19835 0.0582 0.26562 0.0664 0.26916 0.0325 0.52424-0.10697 0.66992-0.46485 0.2455-0.61888 0.5359-1.60673 0.82618-2.5957l0.64062 0.34961c0.0633 0.0418 0.12985 0.0508 0.19727 0.0586 0.2355 0.0285 0.42798-0.15436 0.51562-0.31445z" fill="none" stroke="#000" stroke-linecap="round" stroke-width="22" style="paint-order:stroke markers fill"/>
  <path id="backdrop-white" d="m316.85993 77.705278c-0.34691 0.01433-0.64001 0.219991-0.78907 0.56836l-4.58203 10.958984-11.3125-0.738281c-0.49925-0.01483-0.80647 0.116551-0.86719 0.652344l-0.0137 0.125-0.25781 6.691406c-5e-3 0.41682 0.15892 0.810026 0.81836 0.884766l0.082 0.0098 7.20899 0.482421-8.01172 12.492182c-0.14699 0.19205-0.21492 0.43455-0.23828 0.64063-0.0374 0.32972 0.12976 0.68416 0.56445 0.90039l6.54297 3.41211c0.2745 0.15633 0.51813 0.22511 0.80664 0.25781 0.86551 0.0981 1.74515-0.30239 2.0625-0.89258l9.3789-16.093745 15.83399 1.001953c0.49924 0.0148 0.77912-0.247415 0.83984-0.783203l0.5918-6.695312c0.0514-0.453364-0.20483-0.774794-0.6582-0.826172l-0.082-0.0078-12.47071-0.830078 3.41211-8.378906c0.0506-0.07776 0.0649-0.200774 0.0742-0.283203 0.0514-0.453364-0.24173-0.822035-0.64453-0.951172l-7.97266-2.572266-0.16601-0.01953c-0.0515-0.0058-0.10084-0.0079-0.15039-0.0059zm-235.923836 4.023438c-0.373676 0.01547-0.701208 0.291106-0.763672 0.673828l-5.470703 33.521486c-0.07139 0.43739 0.234479 0.81338 0.671875 0.88476l7.833984 1.2793c0.437396 0.0714 0.807521-0.19541 0.878907-0.63281l2.576171-15.78516c2.41671 1.70075 6.156357 4.55613 7.94336 6.11328 0.17934 0.15174 0.436494 0.31591 0.714844 0.36133 0.27834 0.0454 0.577405-0.0288 0.828125-0.31445 5.489365-6.37049 5.687695-6.58355 5.746095-6.94141 0.0519-0.31811-0.10155-0.62753-0.5-0.937497-3.154398-2.433479-9.217258-5.057263-10.410158-5.251954-0.39763-0.0649-0.775901-0.0026-1.119141 0.34961l-2.535156 2.52539 2.226563-13.638672c0.0714-0.437397-0.1876-0.848535-0.625-0.919922l-7.833985-1.277343c-0.05467-0.0089-0.108727-0.01198-0.162109-0.0098zm278.603516 14.580078c-0.72795 0.03311-1.46224 0.140353-2.19531 0.326172-5.93695 1.50491-9.50491 7.494684-8 13.431644 1.48655 5.86457 7.47515 9.43068 13.41211 7.92578 5.86455-1.48655 9.43186-7.47529 7.94531-13.33985-1.31679-5.194835-6.06645-8.57554-11.16211-8.343746zm-226.2207 6.052736c-0.6933 9e-3 -1.30863 0.48184-1.44336 1.24023l-0.0274 0.14649-4.95507 38.56836c-0.0702 0.822 0.39936 1.5881 1.13476 1.71875l0.14844 0.0254 13.86914 1.7832c0.82201 0.0702 1.52877-0.48666 1.68555-1.36914l3.41797-26.93164c4.5677 1.1908 5.56319 4.55401 4.61132 12.04688l-2.02148 15.64843c-0.0702 0.82201 0.40131 1.5881 1.13672 1.71875l0.14844 0.0273 13.80859 1.69336c0.82201 0.0702 1.52681-0.48666 1.68359-1.36914l3.3418-26.49024c4.08727 1.33304 5.10778 4.54897 4.06445 12.55664-1.69134 14.64418 9.44896 18.97529 10.47852 19.1582 0.73541 0.13065 1.44909-0.0451 2.38867-0.63671 0 0 7.30981-4.84706 7.33594-4.99414 0.50657-0.28931 0.73155-0.70456 0.79687-1.07227 0.14372-0.80894-0.6065-1.70039-0.98242-2.14648-2.97298-3.33504-3.14101-7.08365-2.58594-11.91602 1.5689-13.52802-6.46904-23.37633-19.41211-25.67578-4.11825-0.73164-8.7494-0.71786-13.76953 0.21094-2.6721-1.61264-5.66725-2.67771-8.97656-3.26563-3.52993-0.62713-7.31054-0.69128-11.2832-0.10742l-4.45313-0.56445c-0.0468-4e-3 -0.0944-5e-3 -0.14062-4e-3zm193.70703 0.82617c-0.19074-4e-3 -0.4159 0.0472-0.64453 0.13086l-6.28906 2.46094c-0.39428 0.16404-0.59349 0.43395-0.63086 0.76367-0.028 0.24729 0.0272 0.50357 0.16406 0.76953l4.3125 9.46289c0.23712 0.48605 0.78587 0.80027 1.44531 0.875 0.49458 0.056 1.00807-0.0539 1.49414-0.29101l5.73633-3.10743c0.39896-0.20525 0.64233-0.51012 0.67969-0.83984 0.028-0.24729-0.0251-0.50475-0.20312-0.77539l-5.10157-8.75977c-0.20525-0.39896-0.51188-0.64155-0.88281-0.68359-0.0258-3e-3 -0.0528-5e-3 -0.0801-6e-3zm-44.41406 11.79688c-0.29936 0.0116-0.63747 0.0619-1.01758 0.1582l-12.58008 2.95703c-1.44803 0.36705-2.42318 1.38362-2.18359 2.63281l3.61523 19.73438c-2.84505-0.28053-6.12305-0.14268-9.23633 0.64648-14.33559 3.6338-17.35229 17.57517-15.11328 26.40821 2.95475 11.6567 15.65693 18.29923 27.74805 15.23437 3.98211-1.00939 7.92459-3.08718 11.41016-6.35937 5.08226 3.02676 11.47461 2.09961 11.47461 2.09961 1.08603-0.27529 1.6269-1.18262 1.85742-2.70508l1.61523-10.04297c0.0897-0.2539 0.0356-0.4703-0.0195-0.6875-0.16517-0.65162-1.05321-0.81057-1.9414-0.9707-3.29882-0.55079-5.28806-4.74664-6.79297-10.6836-1.26632-4.99573-6.60155-35.77598-6.69532-36.75391l-0.0566-0.21679c-0.20875-0.82358-0.78675-1.50147-2.08398-1.45117zm-58.49805 0.30273c-11.14298-0.21224-21.18017 5.92798-23.53516 19.18359-2.29945 12.94307 6.67703 23.48955 18.66407 25.61915 10.44271 1.85524 26.42887-3.5757 28.97656-17.91602 1.69846-9.56022-3.02887-23.52278-19.28125-26.41016-1.61788-0.28743-3.23236-0.44624-4.82422-0.47656zm-167.531252 1.6582c-0.141019-4e-3 -0.291466 4e-3 -0.449219 0.0234l-14.001953 1.91797-0.294922 0.0547c-1.90928 0.35489-1.795443 1.77701-1.705078 2.67187 0.366641 3.1986 0.780516 6.23495 1.152343 9.05274l-4.755859 0.58008c-0.881207 0.1638-1.418511 0.9481-1.341797 1.76953l1.384766 12.35351c0.150147 0.80777 0.948108 1.42046 1.769531 1.34375l5.5625-0.72851c3.82058 18.51052 9.132933 24.20711 21.392579 24.35937 0.233953 0.0325 0.453526-0.01 0.673828-0.0508 1.101508-0.20474 1.626954-1.06197 1.955078-2.56641l2.097656-9.96093c0.03248-0.23395 0.06635-0.46838 0.03906-0.61524-0.150148-0.80778-1.08687-0.93727-1.962891-1.15429-3.490437-0.79465-5.312553-5.69838-6.554688-12.38086l4.886719-0.68164 0.146485-0.0273c0.807773-0.15015 1.274002-0.91802 1.210937-1.66601l-1.384763-12.35352c-0.163798-0.88121-0.961758-1.4939-1.769531-1.34375l-5.123047 0.64844c-0.352993-3.12518-0.731777-6.39825-1.158203-9.50977-0.203042-1.09232-0.782402-1.70615-1.769531-1.73633zm314.869142 0.1836c-0.0919 3e-3 -0.18293 0.0161-0.27343 0.0391l-0.14649 0.0371-14.29492 4.39453c-0.85047 0.29264-1.26515 1.09016-1.04492 1.95898l10.74805 34.80079c0.27429 0.77807 1.01803 1.28391 1.81445 1.08203l0.14453-0.0371 14.29688-4.39453c0.70565-0.25594 1.19133-1.0709 1.00781-1.79492l-0.0371-0.14649-10.76563-34.87305c-0.16059-0.63351-0.80551-1.08615-1.44922-1.0664zm20.98633 0.64843c-0.69369 0.0158-1.34283 0.60025-1.48047 1.36133l-5.43164 38.51172c-0.079 0.89282 0.45752 1.61418 1.34375 1.76758l14.81446 2.06055 0.14843 0.0137c0.74402 0.0658 1.47324-0.54505 1.53907-1.28906l3.80273-26.88282c5.40494 0.77816 8.90996 4.38712 8.21875 12.19922l-0.22461 2.5293c-1.17176 13.24339 10.38344 18.24089 11.72266 18.35938 0.66961 0.0592 1.43379-0.0975 2.23047-0.62696 0 0 7.83254-4.63049 7.8457-4.77929 0.55372-0.32593 0.81597-0.75281 0.85547-1.19922 0.0724-0.81841-0.60409-1.62757-1.01758-2.03907-2.80029-3.09714-3.47216-6.53276-3.10351-10.69922l0.21679-2.45507c1.25734-14.2106-9.38293-24.44883-24.48633-25.78516-2.67844-0.23699-5.45781-0.18222-8.41211 0.15625l-8.29296-1.18555-0.1504-0.0137c-0.0465-4e-3 -0.0924-5e-3 -0.13867-4e-3zm-290.58008 0.77149c-1.81197-0.0418-3.733109 0.10925-5.76172 0.48633-12.924357 2.40237-22.772806 12.36285-19.960938 27.49023 2.402373 12.92436 14.514666 19.63704 26.484378 17.41211 10.42762-1.93828 23.48008-12.64524 20.81836-26.96484-1.55267-8.3531-8.8963-18.13095-21.58008-18.42383zm240.69727 4.58398c-0.20449 8e-3 -0.42612 0.0307-0.66602 0.0723l-12.80078 2.08789-0.36328 0.0918c-0.86882 0.22023-1.46554 0.60377-1.77148 1.2207-3.13567-0.51509-6.88383-0.41176-10.50391 0.50586-14.33558 3.63379-17.31363 17.71802-15.11133 26.40625 2.95475 11.6567 15.7292 18.28166 27.82031 15.2168 3.6925-0.93598 7.38101-2.7959 10.6504-5.70508 4.48267 2.48526 9.84436 2.36125 10.56836 2.17773 0.94123-0.23859 1.5002-1.07664 1.83984-2.47265l2.26758-9.89649c0.0714-0.3263 0.0894-0.56223 0.0527-0.70703-0.18353-0.72402-1.09046-0.95627-1.90625-1.13476-2.62885-0.64355-4.21525-3.55432-5.3164-7.89844-1.21126-4.77852-1.79278-11.33417-2.44922-18.17969l-0.0918-0.36328c-0.1927-0.76022-0.78734-1.47692-2.21875-1.42188zm122.39258 0.67774c-11.11884 0.76318-20.57906 7.75913-21.76563 21.16992-1.15859 13.09458 8.70272 22.81566 20.83008 23.88867 10.56496 0.93478 26.01516-5.87266 27.29883-20.38086 0.85578-9.67213-5.07299-23.16821-21.51562-24.62304-1.63683-0.14483-3.25925-0.16372-4.84766-0.0547zm-240.80274 5.375c0.66601-0.0356 1.38408 7e-3 2.15625 0.14453 7.50109 1.33263 6.52558 8.51875 6.27734 9.91602-0.74471 4.19178-3.85481 8.03894-9.07617 7.11132-4.19178-0.74471-7.56164-4.83393-6.66015-9.9082 0.51444-2.89565 2.64065-7.01435 7.30273-7.26367zm-124.408205 3.3125c6.350535-0.36557 7.788105 5.92828 8.031255 7.23633 0.77804 4.18572-0.77839 8.88242-5.99219 9.85156-4.185731 0.77804-8.78082-1.86471-9.722658-6.93164-0.614244-3.30453 0.179215-8.84561 6.347656-9.99219 0.468141-0.087 0.912569-0.13969 1.335937-0.16406zm367.492195 5.07226c0.35989-8e-3 0.73635 5e-3 1.12695 0.0391 7.58891 0.67145 7.24618 7.9145 7.1211 9.32812-0.37522 4.24086-3.13941 8.34629-8.42188 7.87891-4.24086-0.37523-7.95422-4.15345-7.5-9.28711 0.27772-3.1388 2.27546-7.8394 7.67383-7.95899zm-142.49414 1.8125c1.56604-0.0215 3.0438 0.49908 3.9707 1.41993 0.40578 2.20876 0.82752 4.182 1.30469 6.06445 0.56892 2.24446 1.22751 4.23315 1.92187 6.06055-1.48173 1.14613-3.00131 1.84076-4.37695 2.18945-4.70613 1.19292-8.41171-1.56464-9.43945-5.61914-0.93597-3.6925 0.47969-8.752 5.04101-9.9082 0.52491-0.13306 1.05611-0.19989 1.57813-0.20704zm-55.24219 14.07813c1.61343-0.0335 3.11568 0.48139 3.98828 1.41601 1.17456 4.63372 2.4388 8.39773 3.77148 11.52735-1.78867 1.4551-3.4892 2.3482-5.08203 2.75195-4.63371 1.17456-8.33749-1.58416-9.36523-5.63867s0.71252-8.73478 5.05664-9.83594c0.54301-0.13764 1.09305-0.20955 1.63086-0.2207zm-90.54297 2.58203c-0.0561 2e-3 -0.11271 0.0107-0.16992 0.0254l-19.67579 4.60156c-0.45775 0.11742-0.78929 0.56764-0.67187 1.02539l1.37109 5.66602c0.11742 0.45774 0.55788 0.75023 1.01563 0.63281l4.36914-1.03906 0.90234 3.83398-7.00781 2.16407c-0.40982 0.1458-0.48458 0.48963-0.38672 0.87109l0.0293 0.11328 1.83203 5.71094c0.15559 0.44796 0.62429 0.69359 1.08203 0.57617l6.25391-1.92969 1.14648 4.78711 0.0488 0.19141c0.91979 3.58567 2.74909 5.96129 8.32031 4.85742l10.58985-2.14648 0.18945-0.0488c1.10623-0.28377 1.64692-1.03085 1.42187-1.9082l-1.29101-5.03711c-0.22506-0.87734-0.72273-1.07452-1.29492-0.92774l-7.90821 1.82617c-0.50568 0.089-1.10694 0.1216-1.35156-0.83203l-0.0195-0.0762c-0.21527-0.8392-0.49057-2.07102-0.81445-3.49219l12.58398-3.8789c0.44795-0.15558 0.70336-0.58523 0.58594-1.04297l-1.83008-5.71094c-0.15559-0.44795-0.85476-0.635-1.3125-0.51758l-11.79297 3.63477c-0.23581-1.07786-0.47018-2.15562-0.73437-3.18555l6.0664-1.39258c0.45774-0.11742 0.75024-0.55983 0.63282-1.01757l-1.33399-5.67383c-0.10274-0.40053-0.45301-0.67641-0.8457-0.66016zm182.00195 5.85742c-0.64002 5e-3 -1.0795 0.40189-1.13671 0.875l-2.6504 17.97657c-0.30736 1.97683-1.19053 5.04401-2.29687 7.98242-0.0455 0.097-0.058 0.1979-0.0703 0.29883-0.0447 0.37009 0.11977 0.69773 0.54492 0.85156l3.42773 1.30078c0.16414 0.054 0.32832 0.10874 0.46289 0.125 0.74017 0.0895 1.42688-0.23803 1.73047-1.05469 0.8527-2.25223 1.62054-5.77751 1.92383-7.7207l0.0176-0.13477 2.13867-0.18359-0.66797 4.66406c-0.0895 0.74016-0.72291 1.75552-1.46679 2.82617-0.0836 0.12644-0.13405 0.2561-0.1504 0.39063-0.0367 0.30278 0.17872 0.50036 0.41016 0.5625l2.27734 0.92383c0.16415 0.054 0.29515 0.10474 0.42969 0.12109 0.43736 0.0529 0.76834-0.1474 1.14844-0.75 0.55942-0.95641 1.1631-2.28171 1.28516-3.29102l2.625-20.57421 1.41211 5.25781c0.0684 0.28136 0.28748 0.44401 0.55664 0.47656 0.13458 0.0163 0.27331-2e-3 0.41601-0.0527l3.47656-1.08203c0.35271-0.0939 0.55324-0.34174 0.58985-0.64454 0.0163-0.13457-4e-3 -0.24025-0.0215-0.3789l-1.60937-5.89453c-0.0684-0.28136-0.28358-0.47917-0.55274-0.51172-0.10092-0.0122-0.23873 6e-3 -0.34375 0.0273l-3.69531 0.91797-0.14258 0.0508c-0.17885-1.626-1.23837-2.74334-3.02148-2.95898l-0.33789-0.041-6.57813-0.35156c-0.0444-3e-3 -0.0882-4e-3 -0.13086-4e-3zm18.99024 1.29688c-0.15445-4e-3 -0.32874 0.0395-0.42774 0.11719l-2.50781 2.11914c-0.11719 0.12238-0.16719 0.25363-0.1875 0.42187-0.0244 0.20185 0.0187 0.41225 0.10742 0.52539l2.30079 2.70117c0.0887 0.11315 0.25363 0.16719 0.42187 0.1875 0.20185 0.0244 0.41167-0.0185 0.5625-0.13672l2.61719-2.17578c0.11718-0.12237 0.20617-0.28102 0.22656-0.44922 0.0204-0.16819-0.0238-0.37828-0.17578-0.5332l-2.51563-2.625c-0.0928-0.0795-0.1893-0.1259-0.35742-0.14648-0.021-3e-3 -0.0424-5e-3 -0.0645-6e-3zm5.20117 0.80273c-0.22005-2e-3 -0.47799 0.0872-0.60547 0.40039l-3.32031 8.26758c-0.0418 0.0633-0.0508 0.13179-0.0586 0.19922-0.0407 0.33643 0.091 0.65815 0.31836 0.75391l4.18945 1.76953c0.13038 0.0502 0.29511 0.10483 0.42969 0.12109 0.47101 0.057 0.93228-0.0929 1.08203-0.48437l3.36523-7.78516c0.0455-0.097 0.0542-0.1647 0.0664-0.26563 0.0407-0.33643-0.0445-0.75471-0.40235-0.90039l-4.64062-1.99609c-0.097-0.0455-0.19746-0.0579-0.33203-0.0742-0.0294-4e-3 -0.0604-6e-3 -0.0918-6e-3zm-19.91797 4.00391 1.11133 0.13476c0.37008 0.0447 0.59732 0.41219 0.50781 1.15235l-0.50976 3.66015-1.81055-0.56054zm13.27735 6.90234c-0.20692 5e-3 -0.40728 0.11947-0.46875 0.38086l-0.66211 2.92383-0.57618-0.30859c-0.0633-0.0418-0.13029-0.0489-0.16406-0.0527-0.1682-0.0204-0.35014 0.06-0.4082 0.25781l-1.0918 2.25586 0.37891-3.98047c0.0407-0.33643-0.17723-0.50032-0.51367-0.54101l-3.13672-0.31055c-0.33644-0.0407-0.56267 0.13579-0.60742 0.50586l-1.40235 15.5332c-0.0558 0.74422 0.38441 1.34394 1.15821 1.43751l0.0684 8e-3 12.64258 1.01758c1.69032 0.13613 2.81871-0.7186 3.05469-2.66993l1.52539-13.46875c0.0407-0.33643-0.22998-0.6429-0.56641-0.68359l-5.39062-0.58398c-0.33643-0.0407-0.63315 0.16357-0.67383 0.5l-0.3418 3.0996-1.47851-0.75976 0.86133-3.44531 8e-3 -0.0684c0.0325-0.26917-0.1242-0.39057-0.35156-0.48633l-1.70899-0.54688-0.0664-8e-3c-0.0294-4e-3 -0.0583-7e-3 -0.0879-6e-3zm-14.41602 0.26367 1.83789 0.59961-0.50586 3.625-2.0293 0.12891zm17.09961 6.50586-0.64844 5.92969c-0.0488 0.40371-0.40008 0.7718-0.87109 0.71484l-5.26953-0.46679 0.58593-5.97071 1.25 0.66211c-0.28217 0.92168-0.6815 1.96644-1.03906 2.94727-0.0377 0.0296-0.0442 0.0969-0.0527 0.16406-0.0203 0.16824 0.0591 0.34834 0.3457 0.51953l1.41602 0.7168c0.097 0.0455 0.19835 0.0582 0.26562 0.0664 0.26916 0.0325 0.52424-0.10697 0.66992-0.46485 0.2455-0.61888 0.5359-1.60673 0.82618-2.5957l0.64062 0.34961c0.0633 0.0418 0.12985 0.0508 0.19727 0.0586 0.2355 0.0285 0.42798-0.15436 0.51562-0.31445z" fill="none" stroke="#fff" stroke-linecap="round" stroke-width="16" style="paint-order:stroke markers fill"/>
  <g id="text" stroke-linecap="round">
   <path id="to-jp" d="m83.207431 118.08766c0.437396 0.0714 0.807421-0.1948 0.878807-0.6322l2.576412-15.78605c2.41671 1.70075 6.15539 4.55617 7.942393 6.11332 0.17934 0.15174 0.43821 0.31646 0.71656 0.36188 0.27834 0.0454 0.57616-0.0284 0.82688-0.31409 5.489367-6.37049 5.687367-6.58312 5.745767-6.94098 0.0519-0.31811-0.10147-0.6289-0.49992-0.938868-3.154397-2.433479-9.21718-5.055875-10.41008-5.250566-0.39763-0.0649-0.77497-4e-3 -1.11821 0.348191l-2.53495 2.525496 2.22596-13.638822c0.0714-0.437397-0.18831-0.847185-0.62571-0.918572l-7.833369-1.27847c-0.437397-0.07139-0.853674 0.228076-0.925061 0.665473l-5.470816 33.520498c-0.07139 0.43739 0.234566 0.81391 0.671962 0.88529z" fill="#a9edbc" stroke-width="5.35094" style="paint-order:stroke markers fill" aria-label="ト"/>
   <path id="mo-jp" d="m188.18896 185.936c1.10623-0.28377 1.64606-1.03208 1.42101-1.90943l-1.29162-5.03519c-0.22506-0.87734-0.72293-1.07487-1.29512-0.92809l-7.90687 1.82497c-0.50568 0.089-1.10722 0.1214-1.35184-0.83223l-0.0196-0.0763c-0.21527-0.8392-0.49023-2.06964-0.81411-3.49081l12.58401-3.87851c0.44795-0.15558 0.7032-0.58694 0.58578-1.04468l-1.83063-5.71004c-0.15559-0.44795-0.85396-0.63471-1.3117-0.51729l-11.79274 3.63488c-0.23581-1.07786-0.47163-2.15572-0.73582-3.18565l6.06612-1.39344c0.45774-0.11742 0.75112-0.55858 0.6337-1.01632l-1.33374-5.67489c-0.11742-0.45774-0.55858-0.75113-1.01632-0.63371l-19.67623 4.60011c-0.45775 0.11742-0.78928 0.56836-0.67186 1.02611l1.37185 5.6651c0.11742 0.45774 0.55858 0.75113 1.01633 0.63371l4.36815-1.03916 0.90217 3.83412-7.00697 2.16332c-0.40982 0.1458-0.48413 0.49008-0.38627 0.87154l0.0293 0.11444 1.83062 5.71003c0.15559 0.44796 0.62509 0.69342 1.08283 0.576l6.25386-1.92947 1.1468 4.78775 0.0489 0.19072c0.91979 3.58567 2.74911 5.9623 8.32033 4.85843l10.58882-2.14706z" fill="#c2edcf" stroke-width="5.23021" style="paint-order:stroke markers fill" aria-label="モ"/>
   <path id="dai-jp" d="m334.08625 99.057919c0.49924 0.0148 0.77923-0.24565 0.83995-0.781438l0.5918-6.695495c0.0514-0.453364-0.20443-0.774564-0.6578-0.825942l-0.0824-0.0093-12.47107-0.828887 3.41253-8.379549c0.0506-0.07776 0.0646-0.201401 0.0739-0.28383 0.0514-0.453364-0.24097-0.820449-0.64377-0.949586l-7.97379-2.57341-0.16486-0.01868c-0.41214-0.04671-0.76989 0.163216-0.94024 0.561352l-4.58164 10.96043-11.31239-0.739322c-0.49925-0.01483-0.80643 0.117331-0.86715 0.653124l-0.014 0.123645-0.25741 6.691645c-5e-3 0.41682 0.15855 0.8111 0.81799 0.88584l0.0825 9e-3 7.20876 0.48299-8.01126 12.492004c-0.14699 0.19205-0.21623 0.43466-0.23959 0.64074-0.0374 0.32972 0.13134 0.6828 0.56603 0.89903l6.54273 3.4131c0.2745 0.15633 0.51711 0.22557 0.80562 0.25827 0.86551 0.0981 1.74586-0.30308 2.06321-0.89327l9.37956-16.093909zm-1.47155 15.195091c0.39896-0.20525 0.6424-0.51161 0.67976-0.84133 0.028-0.24729-0.0264-0.50392-0.20443-0.77456l-5.1019-8.76004c-0.20525-0.39896-0.51162-0.64241-0.88255-0.68445-0.20607-0.0233-0.46271 0.0311-0.724 0.12668l-6.28993 2.45974c-0.39428 0.16404-0.59184 0.43386-0.62921 0.76358-0.028 0.24729 0.0264 0.50393 0.16322 0.76989l4.31251 9.46372c0.23712 0.48605 0.78611 0.79874 1.44555 0.87347 0.49458 0.056 1.00783-0.0528 1.4939-0.28989z" fill="#ffcd98" stroke-width="5.50889" style="paint-order:stroke markers fill" aria-label="大"/>
   <path id="no-jp" d="m365.44599 191.58407c0.16415 0.054 0.29467 0.10389 0.42921 0.12024 0.43736 0.0529 0.76864-0.146 1.14874-0.7486 0.55942-0.95641 1.1636-2.2829 1.28566-3.29221l2.62462-20.57354 1.41237 5.25699c0.0684 0.28136 0.2876 0.44442 0.55676 0.47697 0.13458 0.0163 0.27322-1e-3 0.41592-0.0521l3.4761-1.08158c0.35271-0.0939 0.55347-0.34269 0.59008-0.64549 0.0163-0.13457-5e-3 -0.23956-0.0225-0.37821l-1.60828-5.89513c-0.0684-0.28136-0.28354-0.47806-0.5527-0.51061-0.10092-0.0122-0.23955 5e-3 -0.34457 0.0266l-3.69531 0.91854-0.14271 0.051c-0.17885-1.626-1.23838-2.74406-3.02149-2.9597l-0.33644-0.0407-6.57973-0.35196c-0.71057-0.0518-1.2049 0.36632-1.26593 0.87097l-2.65182 17.97595c-0.30736 1.97683-1.19039 5.04464-2.29673 7.98305-0.0455 0.097-0.058 0.19779-0.0703 0.29872-0.0447 0.37009 0.12049 0.69728 0.54564 0.85111l3.4268 1.30192c0.16414 0.054 0.32829 0.10801 0.46286 0.12427 0.74017 0.0895 1.42821-0.23692 1.7318-1.05358 0.8527-2.25223 1.62038-5.77776 1.92367-7.72095l0.0163-0.13458 2.13878-0.18511-0.66648 4.66425c-0.0895 0.74016-0.72439 1.75571-1.46827 2.82636-0.0836 0.12644-0.13345 0.25696-0.1498 0.39149-0.0367 0.30278 0.17854 0.49949 0.40998 0.56163zm18.27358 2.44887c1.69032 0.13613 2.81761-0.71745 3.05359-2.66878l1.52656-13.4696c0.0407-0.33643-0.22957-0.6422-0.566-0.68289l-5.3911-0.58368c-0.33643-0.0407-0.63407 0.16227-0.67475 0.4987l-0.34067 3.09927-1.47842-0.75909 0.86051-3.44603 8e-3 -0.0673c0.0325-0.26917-0.12346-0.39043-0.35082-0.48619l-1.70877-0.54801-0.0673-8e-3c-0.2355-0.0285-0.48728 0.0776-0.55754 0.37633l-0.66085 2.92401-0.57708-0.30878c-0.0633-0.0418-0.13037-0.0502-0.16414-0.054-0.1682-0.0204-0.34864 0.0602-0.4067 0.25802l-1.09225 2.25741 0.37918-3.98214c0.0407-0.33643-0.17854-0.49949-0.51498-0.54018l-3.13698-0.31107c-0.33644-0.0407-0.56272 0.13677-0.60747 0.50684l-1.4006 15.53298c-0.0558 0.74422 0.3837 1.34355 1.1575 1.43712l0.0673 8e-3zm1.94719-18.64146c0.13038 0.0502 0.29463 0.10397 0.42921 0.12023 0.47101 0.057 0.93279-0.092 1.08254-0.48351l3.36517-7.78557c0.0455-0.097 0.054-0.16414 0.0662-0.26507 0.0407-0.33643-0.0451-0.75643-0.40293-0.90211l-4.64015-1.99486c-0.097-0.0455-0.1978-0.058-0.33237-0.0743-0.2355-0.0285-0.5505 0.0358-0.69619 0.3937l-3.32114 8.26881c-0.0418 0.0633-0.0502 0.13037-0.058 0.1978-0.0407 0.33643 0.0909 0.65957 0.31828 0.75533zm-2.83743-8.43328c0.11718-0.12237 0.20481-0.28246 0.2252-0.45066 0.0204-0.16819-0.0225-0.37821-0.17447-0.53313l-2.51574-2.62545c-0.0928-0.0795-0.18965-0.12536-0.35777-0.14594-0.16824-0.0203-0.37822 0.0225-0.49136 0.11125l-2.50934 2.12016c-0.11719 0.12238-0.16715 0.25286-0.18746 0.4211-0.0244 0.20185 0.0185 0.41185 0.10719 0.52499l2.30166 2.70198c0.0887 0.11315 0.25286 0.16715 0.4211 0.18746 0.20185 0.0244 0.41187-0.0185 0.5627-0.13676zm-2.29225 20.64788c-0.0488 0.40371-0.40044 0.77082-0.87145 0.71386l-5.26872-0.4665 0.58557-5.97117 1.25108 0.66332c-0.28217 0.92168-0.68149 1.96572-1.03905 2.94655-0.0377 0.0296-0.0455 0.097-0.054 0.16414-0.0203 0.16824 0.0602 0.34865 0.34676 0.51984l1.41521 0.71731c0.097 0.0455 0.1978 0.058 0.26507 0.0662 0.26916 0.0325 0.525-0.10719 0.67068-0.46507 0.2455-0.61888 0.5358-1.60783 0.82608-2.5968l0.64034 0.35048c0.0633 0.0418 0.13038 0.0502 0.1978 0.058 0.2355 0.0285 0.42813-0.15304 0.51577-0.31313l1.16767-2.31655zm-14.20313-14.65504-1.8097-0.56021 0.70121-4.38695 1.11025 0.13426c0.37008 0.0447 0.59853 0.41374 0.50902 1.1539zm-0.91575 6.44328-2.02972 0.13002 0.69714-4.35331 1.83929 0.59794z" fill="#ffbe76" stroke-width="4.50083" style="paint-order:stroke markers fill" aria-label="脳"/>
   <g stroke-width="9.92">
    <path id="to-en" d="m41.837246 118.94071c-1.90928 0.35489-1.796582 1.77838-1.706217 2.67324 0.366641 3.1986 0.780557 6.23539 1.152384 9.05318l-4.75534 0.57998c-0.881207 0.1638-1.418578 0.94773-1.341864 1.76916l1.384415 12.35346c0.150147 0.80777 0.948095 1.42051 1.769518 1.3438l5.561839-0.7299c3.82058 18.51052 9.134415 24.20761 21.394061 24.35987 0.233953 0.0325 0.453819-9e-3 0.674121-0.0498 1.101508-0.20474 1.626403-1.06199 1.954527-2.56643l2.097728-9.96125c0.03248-0.23395 0.06593-0.46822 0.03864-0.61508-0.150148-0.80778-1.086838-0.93786-1.962859-1.15488-3.490437-0.79465-5.312284-5.69733-6.554419-12.37981l4.887358-0.68199 0.145938-0.0271c0.807773-0.15015 1.272913-0.91914 1.209848-1.66713l-1.384418-12.35348c-0.163798-0.88121-0.961742-1.49393-1.769515-1.34378l-5.122108 0.64814c-0.352993-3.12518-0.733164-6.39725-1.15959-9.50877-0.232048-1.24837-0.955635-1.87203-2.21766-1.71341l-14.002587 1.91744zm54.25933 0.0955c-12.924357 2.40237-22.772736 12.3623-19.960868 27.48968 2.402373 12.92436 14.513842 19.6373 26.483552 17.41237 10.42762-1.93828 23.48084-12.64623 20.81912-26.96583-1.77448-9.5464-11.11292-20.95284-27.341804-17.93622zm2.304467 13.6267c7.490257-1.39229 9.108627 5.67591 9.367977 7.07116 0.77804 4.18572-0.78021 8.882-5.99401 9.85114-4.185729 0.77804-8.779339-1.86308-9.721177-6.93001-0.614244-3.30453 0.178769-8.84571 6.34721-9.99229z" fill="#73d291" style="paint-order:stroke markers fill"/>
    <path id="mo-en" d="m228.93736 115.76416c-12.94307-2.29945-25.66646 3.55769-28.35787 18.70696-2.29945 12.94307 6.67692 23.48906 18.66396 25.61866 10.44271 1.85524 26.42724-3.57462 28.97493-17.91494 1.69846-9.56022-3.02864-23.5233-19.28102-26.41068zm-56.99558-9.67151c-4.11825-0.73164-8.74842-0.71872-13.76855 0.21008-2.6721-1.61264-5.6681-2.67728-8.97741-3.2652-3.52993-0.62713-7.31128-0.69213-11.28394-0.10827l-4.4526-0.56292c-0.74847-0.0571-1.44068 0.42711-1.58439 1.23606l-0.026 0.14615-4.95547 38.56764c-0.0702 0.822 0.39936 1.58848 1.13476 1.71913l0.14807 0.0263 13.86899 1.78156c0.82201 0.0702 1.52857-0.4864 1.68535-1.36888l3.4177-26.93066c4.5677 1.1908 5.56412 4.55433 4.61225 12.0472l-2.02211 15.6473c-0.0702 0.82201 0.40127 1.58882 1.13668 1.71947l0.14807 0.0263 13.80924 1.69358c0.82201 0.0702 1.52665-0.48674 1.68343-1.36922l3.34138-26.48995c4.08727 1.33304 5.10875 4.5494 4.06542 12.55707-1.69134 14.64418 9.44892 18.97463 10.47848 19.15754 0.73541 0.13065 1.44889-0.0453 2.38847-0.63695 0 0 7.30995-4.84589 7.33608-4.99297 0.50657-0.28931 0.73221-0.70463 0.79753-1.07234 0.14372-0.80894-0.60752-1.70043-0.98344-2.14652-2.97298-3.33504-3.14156-7.08306-2.58649-11.91543 1.5689-13.52802-6.46846-23.37664-19.41153-25.67609zm54.35925 23.23788c7.50109 1.33263 6.52669 8.51789 6.27845 9.91516-0.74471 4.19178-3.85592 8.03931-9.07728 7.11169-4.19178-0.74471-7.56215-4.83341-6.66066-9.90768 0.58793-3.30931 3.28212-8.21664 9.45949-7.11917z" fill="#8be3a5" style="paint-order:stroke markers fill"/>
    <path id="dai-en" d="m269.01341 118.09992c-1.44803 0.36705-2.42327 1.38371-2.18368 2.6329l3.61596 19.73408c-2.84505-0.28053-6.12233-0.14264-9.23561 0.64652-14.33559 3.6338-17.35233 17.5748-15.11332 26.40784 2.95475 11.6567 15.65722 18.29981 27.74834 15.23495 3.98211-1.00939 7.92458-3.0877 11.41015-6.35989 5.08226 3.02676 11.47337 2.10075 11.47337 2.10075 1.08603-0.27529 1.62656-1.1828 1.85708-2.70526l1.61515-10.04262c0.0897-0.2539 0.0358-0.47103-0.0193-0.68823-0.16517-0.65162-1.05244-0.81076-1.94063-0.97089-3.29882-0.55079-5.28746-4.74702-6.79237-10.68398-1.26632-4.99573-6.60298-35.77481-6.69675-36.75274l-0.0552-0.21773c-0.25693-1.01363-1.07501-1.80687-3.10226-1.293zm88.33019-21.46517c-5.93695 1.50491-9.50445 7.49508-7.99954 13.43204 1.48655 5.86457 7.47636 9.43061 13.41332 7.92571 5.86455-1.48655 9.43098-7.47493 7.94443-13.33949-1.50491-5.93696-7.49365-9.504811-13.35821-8.01826zm-40.89419 30.47657c-14.33558 3.63379-17.31374 17.71913-15.11144 26.40736 2.95475 11.6567 15.72918 18.28157 27.82029 15.21671 3.6925-0.93598 7.38166-2.79689 10.65105-5.70607 4.48267 2.48526 9.8439 2.36066 10.5679 2.17714 0.94123-0.23859 1.5002-1.07517 1.83984-2.47118l2.26838-9.89791c0.0714-0.3263 0.0893-0.56167 0.0526-0.70647-0.18353-0.72402-1.08986-0.95643-1.90565-1.13492-2.62885-0.64355-4.21551-3.55456-5.31666-7.89868-1.21126-4.77852-1.79385-11.33436-2.45029-18.17988l-0.0917-0.36161c-0.22023-0.86882-0.96587-1.68244-2.88502-1.35008l-12.80119 2.0883-0.36162 0.0917c-0.86882 0.22023-1.46598 0.60393-1.77192 1.22086-3.13567-0.51509-6.88456-0.41285-10.50464 0.50477zm54.58291-9.90667-14.29577 4.3954c-0.85047 0.29264-1.26497 1.09053-1.04474 1.95935l10.74765 34.80108c0.27429 0.77807 1.01904 1.28309 1.81546 1.08121l0.14389-0.0365 14.29766-4.39588c0.70565-0.25594 1.19137-1.07084 1.00785-1.79486l-0.037-0.14578-10.76588-34.87302c-0.18353-0.72402-0.99937-1.21151-1.72339-1.02798zm-47.87561 22.38531c2.09965-0.53222 4.31234-0.0148 5.54821 1.213 0.40578 2.20876 0.82832 4.18191 1.30549 6.06436 0.56892 2.24446 1.22693 4.234 1.92129 6.0614-1.48173 1.14613-2.99991 1.84041-4.37555 2.1891-4.70613 1.19292-8.41218-1.5659-9.43992-5.6204-0.93597-3.6925 0.47916-8.75126 5.04048-9.90746zm-55.29493 14.09274c2.17206-0.55057 4.45669-0.0514 5.62015 1.19477 1.17456 4.63372 2.43737 8.39701 3.77005 11.52663-1.78867 1.4551-3.48811 2.34901-5.08094 2.75276-4.63371 1.17456-8.33834-1.58461-9.36608-5.63912s0.7127-8.73388 5.05682-9.83504z" fill="#fdaf56" style="paint-order:stroke markers fill"/>
    <path id="no-en" d="m469.79473 123.86533c-13.09458-1.15859-25.25693 5.78894-26.61301 21.11556-1.15859 13.09458 8.70382 22.81488 20.83118 23.88789 10.56496 0.93478 26.01527-5.87217 27.29894-20.38037 0.85578-9.67213-5.07448-23.16825-21.51711-24.62308zm-60.36288-5.04084c-2.67844-0.23699-5.4574-0.18274-8.4117 0.15573l-8.29309-1.18473-0.1498-0.0133c-0.74401-0.0658-1.4732 0.54482-1.62001 1.35664l-5.43092 38.51105c-0.079 0.89282 0.45733 1.61448 1.34356 1.76788l14.81344 2.06165 0.1498 0.0132c0.74402 0.0658 1.47177-0.54541 1.5376-1.28942l3.80401-26.88263c5.40494 0.77816 8.90971 4.38744 8.2185 12.19954l-0.22378 2.52918c-1.17176 13.24339 10.3833 18.24002 11.72252 18.35851 0.66961 0.0592 1.43321-0.0968 2.22989-0.62622 0 0 7.8332-4.63139 7.84636-4.78019 0.55372-0.32593 0.81558-0.75243 0.85508-1.19884 0.0724-0.81841-0.60412-1.62753-1.01761-2.03903-2.80029-3.09714-3.47301-6.53158-3.10436-10.69804l0.21723-2.45525c1.25734-14.2106-9.38332-24.44949-24.48672-25.78582zm58.92322 18.78581c7.58891 0.67145 7.24668 7.9144 7.1216 9.32802-0.37522 4.24086-3.13801 8.34575-8.42048 7.87837-4.24086-0.37523-7.9559-4.15348-7.50168-9.28714 0.29623-3.34805 2.55088-8.47222 8.80056-7.91925z" fill="#ffa238" style="paint-order:stroke markers fill"/>
   </g>
  </g>
  <g id="spots" stroke-linecap="round" stroke-width="9.92">
   <path id="spots-to" d="m48.994636 117.95339-6.84375 0.9375-0.292969 0.0547c-1.90928 0.35489-1.797396 1.77701-1.707031 2.67187 0.366641 3.1986 0.780517 6.2369 1.152344 9.05469l-4.75586 0.58008c-0.221148 0.0411-0.420183 0.12046-0.59375 0.23047 3.641776 1.02756 7.717999 0.0774 10.541016-2.82617 2.845949-2.92718 3.670973-7.07049 2.5-10.70313zm56.503914 0.95703c-0.3675 3.17191 0.68787 6.47312 3.15429 8.8711 3.30269 3.21102 8.15361 3.84979 12.07227 1.95117-2.96648-5.09438-8.07599-9.54912-15.22656-10.82227zm-14.20899 1.43164c-6.52317 2.34967-11.76579 6.85139-14.17774 13.11914 0.51533 1.60993 1.42216 3.12026 2.71875 4.38086 3.31509 3.22309 8.19088 3.85455 12.11719 1.92969 0.26031-2.79 1.69258-5.83502 5.62695-6.91211 0.91745-3.57806-0.0543-7.53348-2.89257-10.29297-1.00974-0.98171-2.16427-1.72277-3.39258-2.22461zm-33.005861 9.27149c-2.725964 0.0384-5.437706 1.11745-7.488281 3.22656-4.10115 4.21821-4.00533 10.96135 0.21289 15.0625 3.311664 3.21975 8.179307 3.85314 12.103516 1.93555-0.61638-1.7933-1.117675-3.89727-1.548828-6.2168l4.888672-0.68359 0.144531-0.0274c0.807773-0.15015 1.274003-0.91802 1.210938-1.66601l-0.822266-7.33399c-0.335195-0.44989-0.709862-0.87958-1.125-1.2832-2.10911-2.05058-4.850208-3.05203-7.576172-3.01367zm49.234381 8.99414c0.14416 0.49399 0.2275 0.89424 0.27148 1.13086 0.77804 4.18572-0.78034 8.88242-5.99414 9.85156-1.908703 0.35479-3.90231-2e-3 -5.59571-0.97461-0.17348 2.98056 0.90035 6.01715 3.208987 8.26172 4.218213 4.10114 10.961353 4.00532 15.062503-0.21289 4.10115-4.21822 4.00729-10.96135-0.21093-15.0625-1.89401-1.84144-4.29759-2.83802-6.74219-2.99414zm-71.310553 3.35351 0.382812 3.41211c0.150147 0.80777 0.948108 1.42046 1.769531 1.34375l1.218751-0.16015c-0.534992-1.41747-1.382892-2.74316-2.541016-3.86914-0.266542-0.25915-0.54467-0.50091-0.830078-0.72657zm41.634763 6.6875c-0.39032 6e-3 -0.7802 0.0332-1.16797 0.082 1.83164 6.37398 6.16004 11.00554 11.57813 13.50586 1.04369-3.65071 0.0966-7.74405-2.81641-10.57618-2.11404-2.05537-4.86147-3.05505-7.59375-3.01172zm-9.943356 7.29493c-0.917222 2.77154-0.663662 5.84112 0.75 8.4414l1.392578-6.61523c0.03248-0.23395 0.06635-0.46838 0.03906-0.61524-0.150148-0.80778-1.086869-0.93727-1.96289-1.15429-0.07413-0.0169-0.146115-0.0361-0.21875-0.0566zm-19.048829 2.76953c-0.398224 0.0126-0.794505 0.0465-1.189453 0.10351 2.822224 6.5339 6.572534 9.7841 12.171875 10.97852 0.118709-2.92005-0.958458-5.87666-3.21875-8.07422-2.157565-2.09769-4.976105-3.09594-7.763672-3.00781z" fill="#a9edbc" style="paint-order:stroke markers fill"/>
   <path id="spots-mo" d="m143.72136 102.53844c-1.88317-0.0217-3.82227 0.10846-5.8086 0.40039l-0.83008-0.10547c-3.93567 4.22755-3.78683 10.84625 0.375 14.89258 2.55814 2.48714 6.04535 3.43076 9.3086 2.84766l0.38281-3.02149c1.36189 0.35504 2.40583 0.90406 3.17578 1.69727 0.78712-0.46831 1.52639-1.04636 2.19531-1.73438 3.54615-3.64737 3.95468-9.18279 1.27344-13.26562-1.45793-0.51844-2.99077-0.91765-4.59765-1.20313-1.76497-0.31356-3.59145-0.48615-5.47461-0.50781zm20.90234 3.0625c0.45388 0.73845 1.00634 1.43258 1.65625 2.06445 3.73684 3.63313 9.45656 3.97456 13.56445 1.07227-2.35281-1.22775-5.00524-2.12203-7.90234-2.63672-2.28841-0.40656-4.73474-0.58265-7.31836-0.5zm20.35547 6.78711c-3.41057 4.23333-3.0967 10.44723 0.87891 14.3125 1.61601 1.57117 3.60112 2.52559 5.66796 2.86914 0.28093-7.05624-2.1452-12.9846-6.54687-17.18164zm40.27929 2.95117c-3.65648-0.21042-7.2184 0.25189-10.45898 1.41406 4.22512 3.98497 10.88059 3.85256 14.94335-0.32617 0.13318-0.13698 0.26239-0.27583 0.38672-0.41797-0.39017-0.0853-0.78704-0.16449-1.19141-0.23633-1.23124-0.21874-2.46086-0.36345-3.67968-0.43359zm-60.94726 3.13281c-2.72596 0.0384-5.43771 1.11551-7.48828 3.22461-4.10115 4.21822-4.00727 10.96332 0.21094 15.06446 2.87002 2.79037 6.90961 3.63806 10.49023 2.5664l2.33399-18.5c4.08727 1.33304 5.10778 4.54897 4.06445 12.55664-0.0307 0.2655-0.0558 0.52836-0.0781 0.78711 2.20023-4.08504 1.53277-9.2907-1.95898-12.68555-2.10911-2.05057-4.84826-3.05202-7.57422-3.01367zm72.63671 0.0176c-1.053 0.52233-2.03637 1.2304-2.90234 2.12109-4.10115 4.21822-4.00729 10.96137 0.21093 15.06251 3.93086 3.82177 10.05643 4.00079 14.19141 0.59375-0.60099-6.6031-4.03333-13.74799-11.5-17.77735zm-24.23827 8.95508c-2.72597 0.0384-5.43575 1.11746-7.48633 3.22656-4.10114 4.21822-4.00728 10.96135 0.21094 15.0625 4.21821 4.10114 10.9633 4.00727 15.06444-0.21094 0.0701-0.0721 0.13934-0.14515 0.20703-0.21875-2.75226-1.6769-4.55095-4.97495-3.86328-8.8457 0.34551-1.94477 1.4183-4.44174 3.49805-5.94726-0.018-0.0177-0.0366-0.0351-0.0547-0.0527-2.1091-2.05057-4.8502-3.05203-7.57616-3.01367zm-77.03321 1.08594c-2.66315-0.01-5.32714 0.97249-7.38867 2.93945l-1.39453 10.85547c-0.0702 0.822 0.39937 1.5881 1.13477 1.71875l0.14843 0.0273 13.86914 1.78125c0.82201 0.0702 1.52877-0.48666 1.68555-1.36914l1.3086-10.3125c-0.50588-0.94833-1.16467-1.83563-1.97657-2.625-2.06026-2.00308-4.72356-3.00604-7.38672-3.01562zm48.21094 8.97461c-2.72596 0.0384-5.4377 1.11745-7.48828 3.22656-0.62984 0.64782-1.15963 1.35527-1.5918 2.10351 2.54087 7.16796 8.83227 9.57175 9.59375 9.70704 0.73541 0.13065 1.4491-0.0451 2.38868-0.63672 0 0 7.3098-4.84706 7.33593-4.99414 0.18252-0.10424 0.3301-0.22468 0.44532-0.35352-0.18762-1.24244-0.59632-2.45734-1.22266-3.58203-0.31909-0.4193-0.59779-0.8447-0.83984-1.2793-0.31462-0.41145-0.66246-0.80588-1.04493-1.17773-2.1091-2.05057-4.85021-3.05203-7.57617-3.01367zm48.40038 8.97461c-2.72596 0.0384-5.4377 1.1155-7.48828 3.22461-2.85084 2.93222-3.67401 7.08553-2.49414 10.72265 6.6645 0.2813 14.63651-2.01817 20.03516-7.23047-0.53754-1.3553-1.36347-2.62092-2.47656-3.70312-2.10911-2.05057-4.85021-3.05203-7.57618-3.01367zm-76.47069 1.10156 1.38672 0.16992c-0.45924-0.0869-0.92165-0.1438-1.38672-0.16992z" fill="#c2edcf" style="paint-order:stroke markers fill"/>
   <path id="spots-dai" d="m360.18576 96.342965c-0.92471-0.0096-1.86556 0.09838-2.80273 0.335938-1.18834 0.301221-2.28101 0.782031-3.25782 1.40625 2.93714 0.824494 6.15313 0.3629 8.76758-1.371094-0.87464-0.234907-1.78232-0.36146-2.70703-0.371094zm8.16016 3.775395c-3.35775 4.09413-3.19434 10.08221 0.43359 13.98828 1.99045-2.58033 2.82124-6.01618 1.96094-9.41015-0.44546-1.75738-1.28284-3.30556-2.39453-4.57813zm-19.25977 6.23438c-0.11373 1.22583-0.0238 2.49291 0.29688 3.75781 1.10907 4.37537 4.72485 7.47147 8.95508 8.13672 0.39807-3.19924-0.65487-6.54037-3.14454-8.96094-1.72982-1.68181-3.88449-2.65805-6.10742-2.93359zm-68.2207 9.01367-11.8125 2.77734c-1.44803 0.36705-2.42319 1.38362-2.1836 2.63281l1.40039 7.64258c3.47553 0.75631 7.25012-0.24443 9.91211-2.98242 2.68161-2.75815 3.56964-6.59727 2.6836-10.07031zm76.55078 6.08008-0.64062 0.19726c-0.85047 0.29264-1.26516 1.09017-1.04493 1.95899l0.0918 0.29492c0.65583-0.75617 1.18648-1.58225 1.59375-2.45117zm-14.82227 1.73046c-0.20448 8e-3 -0.42612 0.0307-0.66601 0.0723l-2.42578 0.39648c0.25895 0.31764 0.53889 0.62342 0.83984 0.91602 1.38297 1.34459 3.03741 2.23851 4.78125 2.68359-0.0725-0.75618-0.14534-1.51769-0.21875-2.2832l-0.0918-0.36133c-0.1927-0.76021-0.78733-1.47887-2.21875-1.42383zm-13.13281 2.10743-0.33398 0.0547-0.36133 0.0898c-0.86882 0.22023-1.4675 0.60572-1.77344 1.22265-3.13567-0.51509-6.88383-0.41371-10.50391 0.50391-2.99189 0.75839-5.48822 1.9713-7.54687 3.49609 0.5325 1.45564 1.39244 2.81793 2.57812 3.97071 4.21822 4.10115 10.96136 4.00533 15.06251-0.21289 2.44101-2.51069 3.39559-5.91452 2.8789-9.125zm37.73438 0.0215c-2.72597 0.0384-5.43771 1.11745-7.48828 3.22656-0.69775 0.71766-1.27333 1.50923-1.72852 2.34766l4.49414 14.55469c4.0576 2.0878 9.16355 1.39096 12.50977-2.05078 2.48463-2.55555 3.42903-6.03843 2.84961-9.29883-9.4e-4 -5e-3 -3e-3 -0.0104-4e-3 -0.0156l-0.76758-2.48632c-8.5e-4 -2e-3 -1e-3 -4e-3 -2e-3 -6e-3 -0.5348-1.18665-1.29728-2.29545-2.28711-3.25782-2.10911-2.05057-4.85021-3.05203-7.57617-3.01367zm-80.6543 1.70313c-1.48868 0.52978-2.88071 1.39986-4.05664 2.60937-4.10115 4.21822-4.00728 10.9633 0.21094 15.06445 2.11465 2.05598 4.8646 3.05762 7.59765 3.01368-1.09351-5.6815-2.5941-14.06696-3.75195-20.6875zm51.83203 8.35742c-2.72596 0.0384-5.43771 1.11745-7.48828 3.22656-0.85395 0.87832-1.52682 1.86533-2.01758 2.91602 0.36817 1.94405 0.7527 3.71014 1.18164 5.40234 0.56892 2.24446 1.22752 4.2351 1.92188 6.0625-0.30291 0.2343-0.60769 0.44904-0.91211 0.64648 0.0124 0.0122 0.0247 0.0231 0.0371 0.0352 4.21821 4.10114 10.9633 4.00727 15.06445-0.21094 1.57111-1.61596 2.52555-3.60315 2.86914-5.66992-0.67015-1.2538-1.21377-2.81785-1.67383-4.63281-0.32312-1.27475-0.60262-2.67631-0.84961-4.17578-0.17734-0.20034-0.36362-0.39638-0.55859-0.58594-2.10911-2.05057-4.84826-3.05203-7.57422-3.01367zm-68.76367 5.07226c-2.63054-0.17399-5.5608 9e-3 -8.35938 0.71875-4.65838 1.18082-8.12163 3.45067-10.59765 6.2793 0.0825 2.66468 1.15828 5.30146 3.2207 7.30664 2.60141 2.52921 6.16421 3.4619 9.47461 2.81641 0.84753-1.8252 2.3714-3.2791 4.55273-3.83203 0.63905-0.16199 1.2889-0.2347 1.91602-0.22266 2.92214-3.87818 2.83802-9.28012-0.20703-13.06641zm39.93945 4.98829c-2.72596 0.0383-5.4377 1.11745-7.48828 3.22656-0.4704 0.48382-0.88404 1.00048-1.24414 1.54297 0.10377 1.18247 0.29381 2.31489 0.56055 3.36718 1.45358 5.7345 5.28413 10.24975 10.24023 12.99415 2.105-0.38334 4.11555-1.40176 5.7207-3.05274 2.81978-2.90027 3.65509-6.99512 2.53125-10.60352-0.78372-0.9156-1.36363-2.03358-1.6914-3.27539-0.31637-0.41464-0.66755-0.81104-1.05274-1.18554-2.1091-2.05058-4.8502-3.05203-7.57617-3.01367zm71.91407 0.41601c-0.78045 0.46642-1.51388 1.03984-2.17774 1.72266-2.51482 2.5866-3.45208 6.12359-2.82812 9.41797l6.27929-1.92969c0.70565-0.25594 1.19134-1.0709 1.00782-1.79492l-0.0371-0.14649zm-27.47461 9.37891c-1.28834 0.53814-2.49252 1.33993-3.52735 2.40429-2.06516 2.12413-3.06526 4.88964-3.01172 7.63477 1.53643 0.13383 2.66207 0.0675 2.9668-0.01 0.94123-0.23859 1.5002-1.07664 1.83984-2.47265zm-73.53907 0.27343c-2.19065 0.0875-4.35662 0.84811-6.16406 2.2754 0.95301 3.36183 1.95741 6.21558 3.00586 8.67773-1.78867 1.4551-3.48725 2.3482-5.08008 2.75195-0.49884 0.12645-0.98776 0.20754-1.46289 0.2461 0.51804 1.59097 1.42012 3.08268 2.70312 4.33008 4.21822 4.10115 10.96137 4.00727 15.06251-0.21094 4.10115-4.21822 4.00728-10.96331-0.21094-15.06446-2.18058-2.12006-5.03697-3.11838-7.85352-3.00586zm86.08399 3.04881c0.10409 0.23443 0.25215 0.43838 0.43164 0.59961-0.13621-0.20394-0.27989-0.40349-0.43164-0.59961zm-37.34571 5.91602c-2.74646 0.023-5.48297 1.10173-7.54882 3.22656-0.50548 0.5199-0.9461 1.07905-1.32422 1.66602 2.89855 0.34832 5.91085 0.18106 8.88281-0.57227 2.06051-0.5223 4.1194-1.33336 6.10547-2.45312-1.83734-1.26355-3.9791-1.8851-6.11524-1.86719zm-77.14258 1.08789c-2.08387 2e-3 -4.16579 0.61102-5.95703 1.82422 0.0157 0.0648 0.0325 0.12911 0.0488 0.19336 1.85736 7.32741 7.565 12.67378 14.55274 14.87304 3.0527-4.21482 2.6305-10.14212-1.21094-13.87695-2.07275-2.01521-4.75433-3.01612-7.4336-3.01367zm46.77149 9.09961c-2.20619 0.34155-4.32389 1.37565-6 3.09961-0.25283 0.26005-0.48999 0.53056-0.71094 0.80859 2.65713 0.27631 4.66211-0.0156 4.66211-0.0156 1.08603-0.27529 1.6269-1.18262 1.85742-2.70508z" fill="#ffcd98" style="paint-order:stroke markers fill"/>
   <path id="spots-no" d="m392.43916 117.77813c-0.6937 0.0158-1.34284 0.60024-1.48047 1.36132l-2.05078 14.54493c4.22892 3.90449 10.82348 3.7468 14.85937-0.4043 3.93404-4.04632 4.00707-10.41641 0.28321-14.54883-0.99058 0.0486-1.99927 0.13199-3.0293 0.25l-8.29297-1.18555-0.14844-0.0137c-0.0465-4e-3 -0.0944-5e-3 -0.14062-4e-3zm22.63476 2.00586c0.53797 1.33392 1.35557 2.58133 2.45313 3.64843 2.63608 2.56292 6.25796 3.48579 9.60547 2.78907-3.17035-2.99434-7.29068-5.2077-12.0586-6.4375zm51.14063 3.96875c-1.1812 0.0308-2.34788 0.13014-3.49023 0.29882-0.2014 3.01019 0.87056 6.08569 3.20312 8.35352 4.21822 4.10114 10.9633 4.00728 15.06445-0.21094 0.93777-0.96453 1.65445-2.06164 2.1543-3.22851-3.31563-2.68828-7.71484-4.60105-13.34961-5.09961-1.20467-0.10659-2.40083-0.14412-3.58203-0.11328zm-13.60938 4.12695c-5.1229 3.48123-8.71996 9.16848-9.42187 17.10156-0.0121 0.13705-0.0235 0.27385-0.0332 0.41016 3.21635 0.4176 6.58275-0.63239 9.01757-3.13672 3.87907-3.9898 4.00472-10.23952 0.4375-14.375zm-36.42187 6.36719c-1.50943-0.0671-3.02828 0.1856-4.44922 0.75586 2.67104 1.86072 4.12857 5.22351 3.66016 10.51757l-0.22266 2.5293c-0.25415 2.87247 0.0896 5.35738 0.79883 7.48828 2.6877-0.0662 5.35281-1.14275 7.375-3.22265 4.10115-4.21822 4.00533-10.96332-0.21289-15.06446-1.94754-1.89349-4.43351-2.89215-6.94922-3.0039zm71.73047 0.15429c-0.94658 0.50555-1.83303 1.16405-2.62109 1.97461-4.10114 4.21821-4.00532 10.96331 0.21289 15.06446 1.31346 1.27701 2.87035 2.14579 4.51757 2.61132 0.66599-1.70784 1.11398-3.56157 1.29102-5.5625 0.38951-4.40228-0.62692-9.59717-3.40039-14.08789zm-81.68555 5.62305c-1.10211 2.14621-1.42566 4.58413-0.97656 6.90039zm53.55274 4.09961c-1.2072 0.5359-2.33349 1.30755-3.31055 2.3125-4.10114 4.21821-4.00727 10.9633 0.21094 15.06445 4.21822 4.10114 10.96331 4.00532 15.06445-0.21289 2.76461-2.84352 3.62234-6.83481 2.5957-10.39062-1.31251 2.47672-3.72654 4.2346-7.2832 3.91992-4.24086-0.37523-7.95617-4.15345-7.50195-9.28711 0.0392-0.44317 0.11205-0.91813 0.22461-1.40625zm-72.37305 0.18555-1.88086 13.34179c-0.079 0.89282 0.45752 1.61418 1.34375 1.76758l9.00195 1.25196c2.66192-4.17144 2.1245-9.77471-1.5625-13.35938-1.93514-1.88144-4.40109-2.87969-6.90039-3.00195-6.5e-4 -4e-5 -1e-3 3e-5 -2e-3 0zm46.80664 9.01367c-2.4084 0.24199-4.74704 1.30252-6.56641 3.17383-2.43037 2.49974-3.38838 5.88582-2.88672 9.08398 1.04361 0.53721 1.83735 0.80198 2.13282 0.82813 0.66961 0.0592 1.43183-0.0975 2.22851-0.62696 0 0 7.8345-4.63049 7.84766-4.77929 0.55372-0.32593 0.81597-0.75281 0.85547-1.19922 0.0724-0.81841-0.60409-1.62757-1.01758-2.03907-1.26509-1.39919-2.09697-2.86813-2.59375-4.4414zm49.91602 8.92969c-2.92317-0.12146-5.88403 0.95598-8.08399 3.21875-0.63236 0.65041-1.16455 1.35975-1.59766 2.11132 3.46698-1.10699 6.85623-2.88407 9.68165-5.33007z" fill="#ffbe76" style="paint-order:stroke markers fill"/>
  </g>
  <rect x="311.27838" y="115.81587" width="11.624441" height="7.1842999" fill="#fff" style="paint-order:stroke markers fill"/>
  <rect x="335.45963" y="100.98824" width="8.9339113" height="17.342299" fill="#fff" style="paint-order:stroke markers fill"/>
 </g>
</svg>
