<?xml version="1.0" encoding="UTF-8"?>
<!-- Created with Inkscape (http://www.inkscape.org/) -->
<svg width="64" height="64" version="1.1" viewBox="0 0 64 64" xmlns="http://www.w3.org/2000/svg">
 <g transform="translate(-89.45521 -81.96442)">
  <g transform="matrix(.7643837 0 0 .7643837 21.69021 19.31215)" fill="none" stroke="#000" stroke-linecap="round">
   <path transform="matrix(.9304531 .6008753 -.6008753 .9304531 148.9638 -47.59783)" d="m40.96291 119.2418c-0.993614 0.56831-0.905311 1.64477-0.83189 2.37184 0.366641 3.1986 0.781448 6.2361 1.153275 9.05389l-4.755896 0.57965c-0.881207 0.1638-1.419263 0.94819-1.342549 1.76962l1.384406 12.35346c0.150147 0.80777 0.948197 1.41926 1.76962 1.34255l5.562192-0.72881c3.82058 18.51052 9.134215 24.2063 21.39386 24.35856 0.233953 0.0325 0.453445-8e-3 0.673747-0.0489 1.101508-0.20474 1.627186-1.06182 1.95531-2.56626l2.097968-9.9612c0.03248-0.23395 0.06511-0.46742 0.03782-0.61428-0.150148-0.80778-1.085619-0.93855-1.96164-1.15557-3.490437-0.79465-5.313374-5.69852-6.555509-12.381l4.887488-0.68143 0.146156-0.0272c0.807773-0.15015 1.27254-0.9189 1.209475-1.66689l-1.384406-12.35346c-0.163798-0.88121-0.961847-1.4927-1.76962-1.34255l-5.121286 0.64769c-0.352993-3.12518-0.733407-6.39784-1.159833-9.50936-0.232048-1.24837-0.955584-1.87308-2.217609-1.71446l-14.00276 1.91843-0.293794 0.0554c-0.35799 0.0665-0.645238 0.16913-0.874533 0.30028z" stroke-width="10.8342" style="paint-order:stroke markers fill"/>
   <path transform="matrix(.7866137 -.0001898296 -.0002458144 .8205731 -70.4596 8.86192)" d="m282.6125 114.9851c-0.29936 0.0116-0.63785 0.0605-1.01796 0.15686l-12.5802 2.95805c-1.44803 0.36705-2.42377 1.3828-2.18418 2.63199l3.61638 19.73505c-2.84505-0.28053-6.1231-0.14389-9.23638 0.64527-14.33559 3.6338-17.35194 17.57651-15.11293 26.40955 2.95475 11.6567 15.65568 18.29977 27.7468 15.23491 3.98211-1.00939 7.92657-3.08743 11.41214-6.35962 5.08226 3.02676 11.4719 2.0996 11.4719 2.0996 1.08603-0.27529 1.62589-1.18339 1.85641-2.70585l1.61575-10.04167c0.0897-0.2539 0.0375-0.47069-0.0176-0.68789-0.16517-0.65162-1.05378-0.81144-1.94197-0.97157-3.29882-0.55079-5.28683-4.74693-6.79174-10.68389-1.26632-4.99573-6.6043-35.77385-6.69807-36.75178l-0.0547-0.21899c-0.20875-0.82357-0.78642-1.50032-2.08365-1.45002zm-13.12031 38.4776c1.61342-0.0335 3.11795 0.48013 3.99054 1.41476 1.17456 4.63372 2.43757 8.39616 3.77025 11.52578-1.78867 1.4551-3.48892 2.34896-5.08175 2.75271-4.63371 1.17456-8.33972-1.58396-9.36746-5.63847s0.71306-8.73264 5.05718-9.8338c0.54302-0.13764 1.09343-0.20983 1.63124-0.22098z" stroke-width="14.9363" style="paint-order:stroke markers fill"/>
  </g>
  <g transform="matrix(.7643837 0 0 .7643837 21.69021 19.31215)" fill="none" stroke="#fff" stroke-linecap="round">
   <path transform="matrix(.9304531 .6008753 -.6008753 .9304531 148.9638 -47.59783)" d="m40.96291 119.2418c-0.993614 0.56831-0.905311 1.64477-0.83189 2.37184 0.366641 3.1986 0.781448 6.2361 1.153275 9.05389l-4.755896 0.57965c-0.881207 0.1638-1.419263 0.94819-1.342549 1.76962l1.384406 12.35346c0.150147 0.80777 0.948197 1.41926 1.76962 1.34255l5.562192-0.72881c3.82058 18.51052 9.134215 24.2063 21.39386 24.35856 0.233953 0.0325 0.453445-8e-3 0.673747-0.0489 1.101508-0.20474 1.627186-1.06182 1.95531-2.56626l2.097968-9.9612c0.03248-0.23395 0.06511-0.46742 0.03782-0.61428-0.150148-0.80778-1.085619-0.93855-1.96164-1.15557-3.490437-0.79465-5.313374-5.69852-6.555509-12.381l4.887488-0.68143 0.146156-0.0272c0.807773-0.15015 1.27254-0.9189 1.209475-1.66689l-1.384406-12.35346c-0.163798-0.88121-0.961847-1.4927-1.76962-1.34255l-5.121286 0.64769c-0.352993-3.12518-0.733407-6.39784-1.159833-9.50936-0.232048-1.24837-0.955584-1.87308-2.217609-1.71446l-14.00276 1.91843-0.293794 0.0554c-0.35799 0.0665-0.645238 0.16913-0.874533 0.30028z" stroke-width="7.22278" style="paint-order:stroke markers fill"/>
   <path transform="matrix(.7866137 -.0001898296 -.0002458144 .8205731 -70.4596 8.86192)" d="m282.6125 114.9851c-0.29936 0.0116-0.63785 0.0605-1.01796 0.15686l-12.5802 2.95805c-1.44803 0.36705-2.42377 1.3828-2.18418 2.63199l3.61638 19.73505c-2.84505-0.28053-6.1231-0.14389-9.23638 0.64527-14.33559 3.6338-17.35194 17.57651-15.11293 26.40955 2.95475 11.6567 15.65568 18.29977 27.7468 15.23491 3.98211-1.00939 7.92657-3.08743 11.41214-6.35962 5.08226 3.02676 11.4719 2.0996 11.4719 2.0996 1.08603-0.27529 1.62589-1.18339 1.85641-2.70585l1.61575-10.04167c0.0897-0.2539 0.0375-0.47069-0.0176-0.68789-0.16517-0.65162-1.05378-0.81144-1.94197-0.97157-3.29882-0.55079-5.28683-4.74693-6.79174-10.68389-1.26632-4.99573-6.6043-35.77385-6.69807-36.75178l-0.0547-0.21899c-0.20875-0.82357-0.78642-1.50032-2.08365-1.45002zm-13.12031 38.4776c1.61342-0.0335 3.11795 0.48013 3.99054 1.41476 1.17456 4.63372 2.43757 8.39616 3.77025 11.52578-1.78867 1.4551-3.48892 2.34896-5.08175 2.75271-4.63371 1.17456-8.33972-1.58396-9.36746-5.63847s0.71306-8.73264 5.05718-9.8338c0.54302-0.13764 1.09343-0.20983 1.63124-0.22098z" stroke-width="9.95751" style="paint-order:stroke markers fill"/>
  </g>
  <g transform="matrix(.7643837 0 0 .7643837 21.69021 19.31215)" stroke-linecap="round" stroke-width="9.92">
   <path id="to-en" transform="matrix(.9304531 .6008753 -.6008753 .9304531 148.9638 -47.59783)" d="m40.96291 119.2418c-0.993614 0.56831-0.905311 1.64477-0.83189 2.37184 0.366641 3.1986 0.781448 6.2361 1.153275 9.05389l-4.755896 0.57965c-0.881207 0.1638-1.419263 0.94819-1.342549 1.76962l1.384406 12.35346c0.150147 0.80777 0.948197 1.41926 1.76962 1.34255l5.562192-0.72881c3.82058 18.51052 9.134215 24.2063 21.39386 24.35856 0.233953 0.0325 0.453445-8e-3 0.673747-0.0489 1.101508-0.20474 1.627186-1.06182 1.95531-2.56626l2.097968-9.9612c0.03248-0.23395 0.06511-0.46742 0.03782-0.61428-0.150148-0.80778-1.085619-0.93855-1.96164-1.15557-3.490437-0.79465-5.313374-5.69852-6.555509-12.381l4.887488-0.68143 0.146156-0.0272c0.807773-0.15015 1.27254-0.9189 1.209475-1.66689l-1.384406-12.35346c-0.163798-0.88121-0.961847-1.4927-1.76962-1.34255l-5.121286 0.64769c-0.352993-3.12518-0.733407-6.39784-1.159833-9.50936-0.232048-1.24837-0.955584-1.87308-2.217609-1.71446l-14.00276 1.91843-0.293794 0.0554c-0.35799 0.0665-0.645238 0.16913-0.874533 0.30028z" fill="#73d291" style="paint-order:stroke markers fill"/>
   <path id="dai-en" transform="matrix(.7866137 -.0001898296 -.0002458144 .8205731 -70.4596 8.86192)" d="m282.6125 114.9851c-0.29936 0.0116-0.63785 0.0605-1.01796 0.15686l-12.5802 2.95805c-1.44803 0.36705-2.42377 1.3828-2.18418 2.63199l3.61638 19.73505c-2.84505-0.28053-6.1231-0.14389-9.23638 0.64527-14.33559 3.6338-17.35194 17.57651-15.11293 26.40955 2.95475 11.6567 15.65568 18.29977 27.7468 15.23491 3.98211-1.00939 7.92657-3.08743 11.41214-6.35962 5.08226 3.02676 11.4719 2.0996 11.4719 2.0996 1.08603-0.27529 1.62589-1.18339 1.85641-2.70585l1.61575-10.04167c0.0897-0.2539 0.0375-0.47069-0.0176-0.68789-0.16517-0.65162-1.05378-0.81144-1.94197-0.97157-3.29882-0.55079-5.28683-4.74693-6.79174-10.68389-1.26632-4.99573-6.6043-35.77385-6.69807-36.75178l-0.0547-0.21899c-0.20875-0.82357-0.78642-1.50032-2.08365-1.45002zm-13.12031 38.4776c1.61342-0.0335 3.11795 0.48013 3.99054 1.41476 1.17456 4.63372 2.43757 8.39616 3.77025 11.52578-1.78867 1.4551-3.48892 2.34896-5.08175 2.75271-4.63371 1.17456-8.33972-1.58396-9.36746-5.63847s0.71306-8.73264 5.05718-9.8338c0.54302-0.13764 1.09343-0.20983 1.63124-0.22098z" fill="#fdaf56" style="paint-order:stroke markers fill"/>
  </g>
  <g>
   <path id="spots-to" d="m109.9338 86.56438c-0.9677-0.0525-1.39933 0.752504-1.68105 1.303336-1.20835 2.443317-2.30845 4.79417-3.33821 6.969028l-3.64874-1.772112c-0.17616-0.07235-0.35452-0.107507-0.5285-0.108984 2.11815 2.40349 5.45347 3.6006 8.79489 2.832103 3.36856-0.774736 5.85868-3.342972 6.69433-6.464417l-5.29843-2.476788-0.23288-0.09557c-0.28516-0.117127-0.53809-0.174503-0.7614-0.186619zm2.54843 13.94553c-0.59915 0.0145-1.20564 0.0888-1.81242 0.22842-4.85425 1.11642-7.88392 5.95609-6.76748 10.81035 0.8765 3.81101 4.04823 6.49763 7.71998 6.93618 0.38527-1.55853 0.99399-3.28498 1.7527-5.13271l3.79206 1.75867 0.11498 0.0478c0.64347 0.26422 1.32711-0.0691 1.62581-0.63002l2.78433-5.59255c-0.0318-0.47392-0.10064-0.9525-0.21051-1.43023-0.55821-2.42713-2.04766-4.39765-4.00405-5.6224-1.4673-0.91854-3.19789-1.41714-4.99538-1.3735zm-16.37751 0.0149-1.294376 2.60368c-0.26422 0.64347 0.02102 1.44492 0.640468 1.76764l0.940552 0.44639c0.270544-1.25386 0.276661-2.5862-0.02987-3.91896-0.07054-0.30674-0.157438-0.60717-0.256781-0.89875zm0.404586 17.2494c-0.993784 5.94331 0.180613 9.97634 3.614393 13.39761 1.4256-2.02228 2.01653-4.61873 1.41829-7.21984-0.57103-2.4829-2.116848-4.48836-4.139907-5.70601-0.289013-0.17394-0.585718-0.33088-0.892776-0.47176zm15.71315 7.25119c-1.92531 1.54991-3.15529 3.8493-3.34417 6.34797l4.02943-4.06526c0.13056-0.15148 0.26249-0.30255 0.31053-0.41953 0.26422-0.64347-0.34253-1.16465-0.8659-1.72135-0.045-0.0461-0.0876-0.0939-0.12989-0.14183z" fill="#a9edbc" stroke-linecap="round" stroke-width="8.39864" style="paint-order:stroke markers fill"/>
   <path id="spots-dai" d="m136.6872 98.40635-7.10191 1.743748c-0.87073 0.23044-1.4576 0.86918-1.31378 1.65268l0.84052 4.79234c2.08961 0.47387 4.3587-0.1544 5.9598-1.87215 1.61291-1.73038 2.14747-4.13835 1.61537-6.316618zm3.41136 7.301958c-0.89521 0.33251-1.73218 0.87894-2.43946 1.63775-2.46671 2.6464-2.41163 6.87704 0.12391 9.4488 1.2711 1.28927 2.92357 1.91652 4.5669 1.88856-0.65643-3.56347-1.55641-8.82266-2.25135-12.97511zm-10.18333 8.42613c-1.58165-0.10874-3.34387 7e-3 -5.02672 0.45237-2.80119 0.74132-4.88404 2.16529-6.37334 3.93986 0.0491 1.67136 0.69513 3.3259 1.93484 4.58331 1.56369 1.58603 3.70647 2.17 5.69705 1.76465 0.50995-1.14495 1.42637-2.05798 2.73804-2.40512 0.38428-0.10169 0.77549-0.14629 1.15256-0.13884 1.75773-2.43295 1.70777-5.82178-0.12243-8.19623zm6.51517 9.44283c-1.31719 0.0552-2.61992 0.53175-3.70695 1.42725 0.57238 2.10851 1.17501 3.89905 1.80496 5.44325-1.07576 0.91294-2.09675 1.47385-3.05455 1.72733-0.29996 0.0794-0.59365 0.12952-0.87935 0.15377 0.31119 0.99784 0.85312 1.93343 1.62433 2.71565 2.53553 2.57176 6.58944 2.51203 9.05615-0.13436 2.46671-2.6464 2.41162-6.87704-0.12392-9.44881-1.31072-1.32945-3.02712-1.95506-4.72067-1.88408zm-17.08068 6.30916c-1.25298 2e-3 -2.50579 0.38386-3.58305 1.14507 9e-3 0.0406 0.02 0.0807 0.0299 0.12094 1.11541 4.59572 4.54598 7.94943 8.74713 9.32787 1.8363-2.64412 1.58348-6.36178-0.72557-8.70383-1.24592-1.26371-2.85739-1.89198-4.46836-1.89005zm28.12096 5.70152c-1.32659 0.21455-2.60031 0.86224-3.60843 1.94381-0.15207 0.16314-0.29557 0.33317-0.42848 0.50759 1.59762 0.17293 2.80375-0.0105 2.80375-0.0105 0.65305-0.17283 0.97782-0.74102 1.11671-1.69599z" fill="#ffcd98" stroke-linecap="round" stroke-width="6.09203" style="paint-order:stroke markers fill"/>
   <rect id="patch" x="113.6496" y="116.8839" width="3.029825" height="3.029827" fill="#fff" style="paint-order:stroke markers fill"/>
   <rect x="126.8104" y="125.216" width="5.491562" height="4.92347" fill="#fff" style="paint-order:stroke markers fill"/>
  </g>
 </g>
</svg>
